<svg width="315" height="223" viewBox="0 0 315 223" fill="none" xmlns="http://www.w3.org/2000/svg">
<path fill-rule="evenodd" clip-rule="evenodd" d="M199.961 44.2639C207.57 46.8177 215.47 47.9383 223.66 47.6257C223.66 47.9992 223.66 48.3728 223.66 48.7463C222.738 49.9426 222.408 51.4368 222.672 53.2287C175.435 53.5553 128.531 53.1818 81.9592 52.1081C81.73 53.4948 81.2363 54.6154 80.478 55.4699C80.478 52.8552 80.478 50.2404 80.478 47.6257C83.3272 47.969 85.9605 47.5955 88.3777 46.5051C111.841 43.674 132.742 33.9622 151.081 17.3694C160.034 24.6018 169.415 31.1386 179.224 36.9799C185.93 40.2014 192.842 42.6295 199.961 44.2639Z" fill="#8A53FE"/>
<path fill-rule="evenodd" clip-rule="evenodd" d="M199.961 44.2638C208.046 44.9278 215.946 46.0484 223.66 47.6256C215.47 47.9383 207.57 46.8176 199.961 44.2638Z" fill="#8A53FE"/>
<path fill-rule="evenodd" clip-rule="evenodd" d="M88.3778 46.505C85.9606 47.5955 83.3273 47.969 80.4781 47.6256C79.4966 58.6293 79.1673 69.8353 79.4906 81.2437C78.5089 69.866 78.1797 58.2865 78.5032 46.505C81.7947 46.505 85.0863 46.505 88.3778 46.505Z" fill="#8A53FE"/>
<path fill-rule="evenodd" clip-rule="evenodd" d="M223.66 80.1232C224.072 84.9609 223.413 89.4433 221.685 93.5704C222.032 88.8823 222.69 84.3998 223.66 80.1232Z" fill="#8A53FE"/>
<path fill-rule="evenodd" clip-rule="evenodd" d="M80.4781 47.6256C80.4781 50.2403 80.4781 52.8551 80.4781 55.4698C80.3139 63.3229 80.4785 71.1671 80.9718 79.0025C127.238 77.1361 173.649 76.0155 220.204 75.6407C220.533 76.0142 220.862 76.3878 221.191 76.7613C222.558 69.0166 223.052 61.1724 222.672 53.2286C222.408 51.4368 222.738 49.9426 223.66 48.7462C223.66 59.2051 223.66 69.6642 223.66 80.1231C222.69 84.3998 222.032 88.8822 221.685 93.5703C220.34 101.886 218.035 109.73 214.773 117.103C214.326 114.074 213.668 111.086 212.798 108.138C210.183 109.84 207.385 110.961 204.404 111.5C203.976 107.328 203.152 107.141 201.936 110.94C202.833 112.944 202.998 115 202.429 117.103C201.698 118.382 200.874 118.382 199.961 117.103C199.293 118.338 198.636 119.459 197.986 120.465C199.333 113.236 200.814 106.139 202.429 99.1734C201.588 100.373 200.766 101.494 199.961 102.535C199.297 101.675 198.475 100.928 197.492 100.294C167.074 101.785 136.628 101.785 106.152 100.294C104.457 101.603 103.798 103.471 104.177 105.897C102.803 103.911 101.65 101.669 100.721 99.1734C101.854 108.282 103.829 117.248 106.646 126.068C109.587 127.824 112.385 129.692 115.039 131.671C111.42 130.865 107.799 129.932 104.177 128.869C104.369 127.267 104.369 125.586 104.177 123.827C103.436 124.808 102.942 125.929 102.696 127.188C100.261 125.757 97.7923 125.757 95.29 127.188C97.8286 128.763 97.8286 130.257 95.29 131.671C91.1755 126.079 88.0485 119.73 85.9091 112.621C82.5199 102.467 80.3803 92.0078 79.4906 81.2437C79.1673 69.8353 79.4965 58.6293 80.4781 47.6256Z" fill="#8A53FE"/>
<path fill-rule="evenodd" clip-rule="evenodd" d="M222.672 53.2286C223.052 61.1724 222.558 69.0166 221.191 76.7613C220.862 76.3878 220.533 76.0142 220.204 75.6407C173.649 76.0155 127.238 77.1361 80.9717 79.0025C80.4784 71.1671 80.3138 63.3229 80.478 55.4698C81.2363 54.6154 81.73 53.4948 81.9592 52.108C128.531 53.1818 175.435 53.5553 222.672 53.2286Z" fill="#8A53FE"/>
<path fill-rule="evenodd" clip-rule="evenodd" d="M197.986 120.465C197.481 122.364 196.823 124.231 196.011 126.068C190.546 129.916 184.951 133.091 179.224 135.593C187.911 125.934 194.823 114.916 199.961 102.535C200.766 101.494 201.588 100.373 202.429 99.1733C200.814 106.139 199.333 113.236 197.986 120.465Z" fill="black"/>
<path fill-rule="evenodd" clip-rule="evenodd" d="M104.177 105.897C109.004 117.183 115.587 127.081 123.926 135.593C120.829 134.967 117.866 133.659 115.039 131.671C112.385 129.692 109.587 127.824 106.646 126.068C103.828 117.248 101.854 108.282 100.721 99.1733C101.65 101.669 102.803 103.911 104.177 105.897Z" fill="black"/>
<path fill-rule="evenodd" clip-rule="evenodd" d="M96.2774 147.359C91.9984 148.107 87.7194 148.853 83.4404 149.601C74.6467 150.853 66.747 154.588 59.7413 160.807C63.4297 145.464 71.3294 133.138 83.4404 123.827C87.3546 131.987 91.6336 139.831 96.2774 147.359Z" fill="#8A53FE"/>
<path fill-rule="evenodd" clip-rule="evenodd" d="M199.961 102.535C194.823 114.916 187.911 125.934 179.224 135.593C184.951 133.091 190.546 129.916 196.011 126.068C196.823 124.231 197.481 122.364 197.986 120.465C198.636 119.458 199.293 118.338 199.961 117.103C200.874 118.382 201.698 118.382 202.429 117.103C202.998 115 202.833 112.944 201.936 110.94C203.152 107.141 203.976 107.328 204.404 111.5C207.384 110.961 210.183 109.84 212.798 108.138C213.668 111.086 214.326 114.074 214.773 117.103C209.125 132.68 200.567 145.941 189.099 156.884C176.724 167.074 164.217 176.972 151.575 186.58C132.636 173.849 115.355 158.535 99.7335 140.636C97.6036 138.039 96.1224 135.051 95.2899 131.671C97.8285 130.257 97.8285 128.763 95.2899 127.188C97.7922 125.757 100.261 125.757 102.696 127.188C102.942 125.929 103.435 124.808 104.177 123.827C104.369 125.586 104.369 127.267 104.177 128.869C107.799 129.932 111.42 130.865 115.039 131.671C117.866 133.659 120.829 134.967 123.926 135.593C115.587 127.081 109.004 117.183 104.177 105.897C103.798 103.471 104.457 101.603 106.152 100.294C136.628 101.785 167.074 101.785 197.492 100.294C198.475 100.928 199.297 101.675 199.961 102.535Z" fill="#8A53FE"/>
<path fill-rule="evenodd" clip-rule="evenodd" d="M216.748 149.601C213.456 148.853 210.164 148.107 206.873 147.359C210.965 139.577 215.08 131.733 219.216 123.827C231.424 132.791 239.324 145.118 242.915 160.807C235.269 153.867 226.547 150.132 216.748 149.601Z" fill="#8A53FE"/>
<path fill-rule="evenodd" clip-rule="evenodd" d="M96.2774 147.359C96.8137 147.426 97.1428 147.8 97.2649 148.48C92.7032 149.593 88.095 149.967 83.4404 149.6C87.7194 148.853 91.9985 148.107 96.2774 147.359Z" fill="#EE99FF" fill-opacity="0.333333"/>
<path fill-rule="evenodd" clip-rule="evenodd" d="M206.873 147.359C210.164 148.107 213.456 148.853 216.748 149.601C212.743 149.964 208.794 149.59 204.898 148.48C205.349 147.586 206.008 147.213 206.873 147.359Z" fill="#8A53FE"/>
</svg>
